# xmcd CD database file
#
# Track frame offsets:
#	150
#	11482
#	27607
#	41782
#	63082
#	76732
#	91207
#	103807
#	115882
#	128407
#	138532
#	148507
#	163057
#	174682
#	186832
#	201982
#	222607
#	233407
#
# Disc length: 3329 seconds
#
# Revision: 0
# Processed by: cddbd v1.5.1PL2 Copyright (c) Steve Scherf et al.
# Submitted via: CDex 1.51
#
DISCID=fc0cff12
DTITLE=Various Artist - 2.up country
DYEAR=1900
DGENRE=Country
TTITLE0=Dottie West - Rocky top
TTITLE1=Dottie West - Leaving for unbelievers
TTITLE2=Dottie West - What are we doing
TTITLE3=Dottie West - Patsy Cline medley
TTITLE4=Lynn Anderson - Even cowgirls get the blues
TTITLE5=Lynn Anderson - Cry
TTITLE6=Lynn Anderson - Rose garden
TTITLE7=Lynn Anderson - I've never loved anyone more
TTITLE8=Lynn Anderson - Where's the fire
TTITLE9=Connie Smith - I'm only in it for the love
TTITLE10=Connie Smith - Because I love you
TTITLE11=Connie Smith - Did we have to come this far
TTITLE12=Connie Smith - Right or wrong
TTITLE13=Connie Smith - Once a day
TTITLE14=Barbara Fairchild - Rocky top
TTITLE15=Barbara Fairchild - Top of my fingers
TTITLE16=Barbara Fairchild - Y'all come
TTITLE17=Barbara Fairchild - Teddy bear song
EXTD=
EXTT0=
EXTT1=
EXTT2=
EXTT3=
EXTT4=
EXTT5=
EXTT6=
EXTT7=
EXTT8=
EXTT9=
EXTT10=
EXTT11=
EXTT12=
EXTT13=
EXTT14=
EXTT15=
EXTT16=
EXTT17=
PLAYORDER=
